<mxfile host="app.diagrams.net" modified="2023-04-03T20:38:29.896Z" agent="Mozilla/5.0 (Windows NT 10.0; Win64; x64) AppleWebKit/537.36 (KHTML, like Gecko) Chrome/111.0.0.0 Safari/537.36" etag="TLN_9K2MwzTnM38t4mOL" version="21.1.1" type="github">
  <diagram id="C5RBs43oDa-KdzZeNtuy" name="Page-1">
    <mxGraphModel dx="1460" dy="431" grid="1" gridSize="10" guides="1" tooltips="1" connect="1" arrows="1" fold="1" page="1" pageScale="1" pageWidth="827" pageHeight="1169" math="0" shadow="0">
      <root>
        <mxCell id="WIyWlLk6GJQsqaUBKTNV-0" />
        <mxCell id="WIyWlLk6GJQsqaUBKTNV-1" parent="WIyWlLk6GJQsqaUBKTNV-0" />
        <mxCell id="WIyWlLk6GJQsqaUBKTNV-2" value="" style="rounded=0;html=1;jettySize=auto;orthogonalLoop=1;fontSize=11;endArrow=block;endFill=0;endSize=8;strokeWidth=1;shadow=0;labelBackgroundColor=none;edgeStyle=orthogonalEdgeStyle;" parent="WIyWlLk6GJQsqaUBKTNV-1" source="WIyWlLk6GJQsqaUBKTNV-3" edge="1">
          <mxGeometry relative="1" as="geometry">
            <mxPoint x="244.0666666666666" y="200.05333333333328" as="targetPoint" />
          </mxGeometry>
        </mxCell>
        <mxCell id="WIyWlLk6GJQsqaUBKTNV-3" value="King Fisher Extraction" style="rounded=1;whiteSpace=wrap;html=1;fontSize=12;glass=0;strokeWidth=1;shadow=0;" parent="WIyWlLk6GJQsqaUBKTNV-1" vertex="1">
          <mxGeometry x="184" y="130" width="120" height="40" as="geometry" />
        </mxCell>
        <mxCell id="ULWIT2c4mu5vRl89kvcm-5" style="edgeStyle=orthogonalEdgeStyle;rounded=0;orthogonalLoop=1;jettySize=auto;html=1;exitX=0.5;exitY=1;exitDx=0;exitDy=0;entryX=0.5;entryY=0;entryDx=0;entryDy=0;" edge="1" parent="WIyWlLk6GJQsqaUBKTNV-1" target="ULWIT2c4mu5vRl89kvcm-4">
          <mxGeometry relative="1" as="geometry">
            <mxPoint x="244" y="280" as="sourcePoint" />
          </mxGeometry>
        </mxCell>
        <mxCell id="ULWIT2c4mu5vRl89kvcm-7" style="edgeStyle=orthogonalEdgeStyle;rounded=0;orthogonalLoop=1;jettySize=auto;html=1;exitX=0.5;exitY=1;exitDx=0;exitDy=0;entryX=0.5;entryY=0;entryDx=0;entryDy=0;" edge="1" parent="WIyWlLk6GJQsqaUBKTNV-1" source="ULWIT2c4mu5vRl89kvcm-4">
          <mxGeometry relative="1" as="geometry">
            <mxPoint x="244" y="390" as="targetPoint" />
          </mxGeometry>
        </mxCell>
        <mxCell id="ULWIT2c4mu5vRl89kvcm-4" value="Liquid Contents emptied into 5 gal carboy" style="rounded=1;whiteSpace=wrap;html=1;" vertex="1" parent="WIyWlLk6GJQsqaUBKTNV-1">
          <mxGeometry x="184" y="300" width="120" height="60" as="geometry" />
        </mxCell>
        <mxCell id="ULWIT2c4mu5vRl89kvcm-8" value="&lt;br&gt;&lt;span style=&quot;color: rgb(0, 0, 0); font-family: Helvetica; font-size: 12px; font-style: normal; font-variant-ligatures: normal; font-variant-caps: normal; font-weight: 400; letter-spacing: normal; orphans: 2; text-align: center; text-indent: 0px; text-transform: none; widows: 2; word-spacing: 0px; -webkit-text-stroke-width: 0px; background-color: rgb(251, 251, 251); text-decoration-thickness: initial; text-decoration-style: initial; text-decoration-color: initial; float: none; display: inline !important;&quot;&gt;Used KFPs removed from instrument&lt;/span&gt;&lt;br&gt;" style="shape=hexagon;perimeter=hexagonPerimeter2;whiteSpace=wrap;html=1;fixedSize=1;" vertex="1" parent="WIyWlLk6GJQsqaUBKTNV-1">
          <mxGeometry x="184" y="200" width="120" height="80" as="geometry" />
        </mxCell>
        <mxCell id="ULWIT2c4mu5vRl89kvcm-9" value="Empty plates discarded into waste container" style="shape=hexagon;perimeter=hexagonPerimeter2;whiteSpace=wrap;html=1;fixedSize=1;" vertex="1" parent="WIyWlLk6GJQsqaUBKTNV-1">
          <mxGeometry x="184" y="390" width="120" height="80" as="geometry" />
        </mxCell>
        <mxCell id="ULWIT2c4mu5vRl89kvcm-10" value="" style="rounded=0;html=1;jettySize=auto;orthogonalLoop=1;fontSize=11;endArrow=block;endFill=0;endSize=8;strokeWidth=1;shadow=0;labelBackgroundColor=none;edgeStyle=orthogonalEdgeStyle;" edge="1" parent="WIyWlLk6GJQsqaUBKTNV-1" source="ULWIT2c4mu5vRl89kvcm-11">
          <mxGeometry relative="1" as="geometry">
            <mxPoint x="584.0666666666666" y="200.05333333333328" as="targetPoint" />
          </mxGeometry>
        </mxCell>
        <mxCell id="ULWIT2c4mu5vRl89kvcm-11" value="King Fisher Extraction" style="rounded=1;whiteSpace=wrap;html=1;fontSize=12;glass=0;strokeWidth=1;shadow=0;" vertex="1" parent="WIyWlLk6GJQsqaUBKTNV-1">
          <mxGeometry x="524" y="130" width="120" height="40" as="geometry" />
        </mxCell>
        <mxCell id="ULWIT2c4mu5vRl89kvcm-12" style="edgeStyle=orthogonalEdgeStyle;rounded=0;orthogonalLoop=1;jettySize=auto;html=1;exitX=0.5;exitY=1;exitDx=0;exitDy=0;entryX=0.5;entryY=0;entryDx=0;entryDy=0;" edge="1" parent="WIyWlLk6GJQsqaUBKTNV-1" target="ULWIT2c4mu5vRl89kvcm-14">
          <mxGeometry relative="1" as="geometry">
            <mxPoint x="584" y="280" as="sourcePoint" />
          </mxGeometry>
        </mxCell>
        <mxCell id="ULWIT2c4mu5vRl89kvcm-13" style="edgeStyle=orthogonalEdgeStyle;rounded=0;orthogonalLoop=1;jettySize=auto;html=1;exitX=0.5;exitY=1;exitDx=0;exitDy=0;entryX=0.5;entryY=0;entryDx=0;entryDy=0;" edge="1" parent="WIyWlLk6GJQsqaUBKTNV-1" source="ULWIT2c4mu5vRl89kvcm-14">
          <mxGeometry relative="1" as="geometry">
            <mxPoint x="584" y="390" as="targetPoint" />
          </mxGeometry>
        </mxCell>
        <mxCell id="ULWIT2c4mu5vRl89kvcm-14" value="Liquid Contents emptied into 5 gal carboy" style="rounded=1;whiteSpace=wrap;html=1;" vertex="1" parent="WIyWlLk6GJQsqaUBKTNV-1">
          <mxGeometry x="524" y="300" width="120" height="60" as="geometry" />
        </mxCell>
        <mxCell id="ULWIT2c4mu5vRl89kvcm-15" value="&lt;br&gt;&lt;span style=&quot;color: rgb(0, 0, 0); font-family: Helvetica; font-size: 12px; font-style: normal; font-variant-ligatures: normal; font-variant-caps: normal; font-weight: 400; letter-spacing: normal; orphans: 2; text-align: center; text-indent: 0px; text-transform: none; widows: 2; word-spacing: 0px; -webkit-text-stroke-width: 0px; background-color: rgb(251, 251, 251); text-decoration-thickness: initial; text-decoration-style: initial; text-decoration-color: initial; float: none; display: inline !important;&quot;&gt;Used KFPs removed from instrument&lt;/span&gt;&lt;br&gt;" style="shape=hexagon;perimeter=hexagonPerimeter2;whiteSpace=wrap;html=1;fixedSize=1;" vertex="1" parent="WIyWlLk6GJQsqaUBKTNV-1">
          <mxGeometry x="524" y="200" width="120" height="80" as="geometry" />
        </mxCell>
        <mxCell id="ULWIT2c4mu5vRl89kvcm-16" value="Empty plates disposed as biowaste" style="shape=hexagon;perimeter=hexagonPerimeter2;whiteSpace=wrap;html=1;fixedSize=1;" vertex="1" parent="WIyWlLk6GJQsqaUBKTNV-1">
          <mxGeometry x="514" y="390" width="130" height="80" as="geometry" />
        </mxCell>
        <mxCell id="ULWIT2c4mu5vRl89kvcm-17" value="&lt;b&gt;Current&lt;/b&gt;" style="text;html=1;strokeColor=none;fillColor=none;align=center;verticalAlign=middle;whiteSpace=wrap;rounded=0;" vertex="1" parent="WIyWlLk6GJQsqaUBKTNV-1">
          <mxGeometry x="214" y="70" width="60" height="30" as="geometry" />
        </mxCell>
        <mxCell id="ULWIT2c4mu5vRl89kvcm-25" value="&lt;b style=&quot;border-color: var(--border-color); color: rgb(0, 0, 0); font-family: Helvetica; font-size: 12px; font-style: normal; font-variant-ligatures: normal; font-variant-caps: normal; letter-spacing: normal; orphans: 2; text-align: center; text-indent: 0px; text-transform: none; widows: 2; word-spacing: 0px; -webkit-text-stroke-width: 0px; background-color: rgb(251, 251, 251); text-decoration-thickness: initial; text-decoration-style: initial; text-decoration-color: initial;&quot;&gt;Proposed&lt;/b&gt;" style="text;whiteSpace=wrap;html=1;" vertex="1" parent="WIyWlLk6GJQsqaUBKTNV-1">
          <mxGeometry x="550" y="70" width="80" height="40" as="geometry" />
        </mxCell>
        <mxCell id="ULWIT2c4mu5vRl89kvcm-27" value="" style="rounded=0;whiteSpace=wrap;html=1;fillColor=#2154d7;" vertex="1" parent="WIyWlLk6GJQsqaUBKTNV-1">
          <mxGeometry x="-70" y="100" width="170" height="390" as="geometry" />
        </mxCell>
        <mxCell id="ULWIT2c4mu5vRl89kvcm-28" value="" style="rounded=0;html=1;jettySize=auto;orthogonalLoop=1;fontSize=11;endArrow=block;endFill=0;endSize=8;strokeWidth=1;shadow=0;labelBackgroundColor=none;edgeStyle=orthogonalEdgeStyle;" edge="1" parent="WIyWlLk6GJQsqaUBKTNV-1" source="ULWIT2c4mu5vRl89kvcm-29">
          <mxGeometry relative="1" as="geometry">
            <mxPoint x="15.066666666666606" y="195.05333333333328" as="targetPoint" />
          </mxGeometry>
        </mxCell>
        <mxCell id="ULWIT2c4mu5vRl89kvcm-29" value="King Fisher Extraction" style="rounded=1;whiteSpace=wrap;html=1;fontSize=12;glass=0;strokeWidth=1;shadow=0;" vertex="1" parent="WIyWlLk6GJQsqaUBKTNV-1">
          <mxGeometry x="-45" y="125" width="120" height="40" as="geometry" />
        </mxCell>
        <mxCell id="ULWIT2c4mu5vRl89kvcm-30" style="edgeStyle=orthogonalEdgeStyle;rounded=0;orthogonalLoop=1;jettySize=auto;html=1;exitX=0.5;exitY=1;exitDx=0;exitDy=0;entryX=0.5;entryY=0;entryDx=0;entryDy=0;" edge="1" parent="WIyWlLk6GJQsqaUBKTNV-1" target="ULWIT2c4mu5vRl89kvcm-32">
          <mxGeometry relative="1" as="geometry">
            <mxPoint x="15" y="275" as="sourcePoint" />
          </mxGeometry>
        </mxCell>
        <mxCell id="ULWIT2c4mu5vRl89kvcm-31" style="edgeStyle=orthogonalEdgeStyle;rounded=0;orthogonalLoop=1;jettySize=auto;html=1;exitX=0.5;exitY=1;exitDx=0;exitDy=0;entryX=0.5;entryY=0;entryDx=0;entryDy=0;" edge="1" parent="WIyWlLk6GJQsqaUBKTNV-1" source="ULWIT2c4mu5vRl89kvcm-32">
          <mxGeometry relative="1" as="geometry">
            <mxPoint x="15" y="385" as="targetPoint" />
          </mxGeometry>
        </mxCell>
        <mxCell id="ULWIT2c4mu5vRl89kvcm-32" value="Liquid Contents emptied into 5 gal carboy" style="rounded=1;whiteSpace=wrap;html=1;" vertex="1" parent="WIyWlLk6GJQsqaUBKTNV-1">
          <mxGeometry x="-45" y="295" width="120" height="60" as="geometry" />
        </mxCell>
        <mxCell id="ULWIT2c4mu5vRl89kvcm-33" value="&lt;br&gt;&lt;span style=&quot;color: rgb(0, 0, 0); font-family: Helvetica; font-size: 12px; font-style: normal; font-variant-ligatures: normal; font-variant-caps: normal; font-weight: 400; letter-spacing: normal; orphans: 2; text-align: center; text-indent: 0px; text-transform: none; widows: 2; word-spacing: 0px; -webkit-text-stroke-width: 0px; background-color: rgb(251, 251, 251); text-decoration-thickness: initial; text-decoration-style: initial; text-decoration-color: initial; float: none; display: inline !important;&quot;&gt;Used KFPs removed from instrument&lt;/span&gt;&lt;br&gt;" style="shape=hexagon;perimeter=hexagonPerimeter2;whiteSpace=wrap;html=1;fixedSize=1;" vertex="1" parent="WIyWlLk6GJQsqaUBKTNV-1">
          <mxGeometry x="-45" y="195" width="120" height="80" as="geometry" />
        </mxCell>
        <mxCell id="ULWIT2c4mu5vRl89kvcm-34" value="Empty plates discarded into waste container" style="shape=hexagon;perimeter=hexagonPerimeter2;whiteSpace=wrap;html=1;fixedSize=1;" vertex="1" parent="WIyWlLk6GJQsqaUBKTNV-1">
          <mxGeometry x="-45" y="385" width="120" height="80" as="geometry" />
        </mxCell>
      </root>
    </mxGraphModel>
  </diagram>
</mxfile>
